<svg width="18" height="18" viewBox="0 0 18 18" fill="none" xmlns="http://www.w3.org/2000/svg">
<path d="M10.3984 6.23975L10.3994 6.23877C10.4904 6.47496 10.646 6.68083 10.8496 6.83154C11.0579 6.98559 11.3068 7.07525 11.5654 7.09033L15.3438 7.3335L12.4365 9.76025C12.2895 9.88244 12.1701 10.0335 12.0859 10.2036L12.0137 10.3813C11.9334 10.625 11.9236 10.8863 11.9854 11.1353L11.9863 11.1392L12.9199 14.813L9.71191 12.7759C9.55246 12.6745 9.37409 12.6081 9.18848 12.5815L9.00098 12.5688C8.81186 12.5688 8.62514 12.6087 8.4541 12.686L8.29004 12.7749L5.08398 14.8042L6.01465 11.1392L6.01562 11.1353C6.06197 10.9485 6.06792 10.7549 6.03418 10.5669L5.9873 10.3813L5.91504 10.2036C5.85869 10.0897 5.78676 9.98409 5.70117 9.89014L5.5625 9.7583L2.65625 7.3335L6.43457 7.09033L6.43555 7.09131C6.6942 7.07626 6.94307 6.98563 7.15137 6.83154C7.35492 6.6809 7.50955 6.47483 7.60059 6.23877L7.60254 6.23975L9 2.71924L10.3984 6.23975Z" stroke="#ADB7BC" stroke-width="1.5" stroke-linecap="round" stroke-linejoin="round"/>
</svg>
